<svg width="727" height="254" viewBox="0 0 727 254" fill="none" xmlns="http://www.w3.org/2000/svg">
<path d="M634.146 19.8088C634.135 19.9333 634.109 20.0487 634.069 20.1549C634.043 20.2625 634.041 20.3799 634.061 20.5072C633.553 20.7607 633.184 21.1205 632.955 21.5867C632.695 21.6895 632.478 21.843 632.303 22.0473C632.13 22.236 631.963 22.441 631.802 22.6622C631.659 22.8693 631.507 23.0756 631.348 23.2813C631.19 23.4714 630.989 23.6262 630.743 23.7459L630.698 24.2596C630.576 24.2175 630.489 24.2256 630.437 24.2838C630.402 24.3278 630.344 24.3619 630.263 24.3862C629.9 24.9505 629.53 25.5141 629.151 26.0769C628.774 26.6243 628.323 27.1103 627.8 27.5351C627.647 27.851 627.479 28.1579 627.296 28.4556C627.113 28.7533 626.922 29.0503 626.724 29.3466C626.525 29.6429 626.335 29.94 626.152 30.2376C625.969 30.5353 625.817 30.8435 625.695 31.1622C625.355 31.4619 625.058 31.8045 624.805 32.1902C624.553 32.5602 624.308 32.9388 624.07 33.3258C623.849 33.6986 623.605 34.0693 623.338 34.438C623.086 34.8081 622.79 35.143 622.45 35.4426C622.453 35.5841 622.42 35.6988 622.349 35.7867C622.279 35.8747 622.239 35.9731 622.229 36.0821C622.198 36.4401 622.334 36.8598 622.637 37.3411C622.956 37.8083 623.338 38.2887 623.781 38.7823C624.225 39.2603 624.672 39.7072 625.122 40.123C625.572 40.5388 625.921 40.8595 626.167 41.085C626.587 40.9492 626.96 40.8093 627.286 40.6653C627.614 40.5057 627.997 40.4294 628.436 40.4364C628.644 40.5645 628.802 40.7273 628.911 40.925C629.036 41.1085 629.088 41.317 629.068 41.5504C629.036 41.9085 628.897 42.2414 628.651 42.5492C628.406 42.8414 628.142 43.0771 627.86 43.2563C627.607 43.2813 627.354 43.2984 627.102 43.3077C626.851 43.3171 626.6 43.3108 626.351 43.289C625.853 43.2455 625.359 43.1552 624.869 43.0182C624.396 42.8671 623.924 42.7081 623.452 42.5414C623.217 42.1758 622.948 41.8541 622.642 41.5765C622.354 41.2846 622.022 41.0439 621.647 40.8542C621.648 40.666 621.615 40.5063 621.548 40.3749C621.481 40.2436 621.397 40.1265 621.296 40.0236C621.197 39.9051 621.08 39.8008 620.947 39.7107C620.829 39.622 620.712 39.5255 620.596 39.4212C620.436 39.4543 620.29 39.512 620.157 39.5945C620.026 39.6615 619.88 39.7115 619.721 39.7446C619.362 40.4347 618.907 41.0693 618.354 41.6483C618.361 41.9312 618.287 42.1444 618.134 42.2878C617.997 42.417 617.82 42.5506 617.605 42.6885C617.487 43.1331 617.304 43.5249 617.055 43.8638C616.821 44.2041 616.549 44.5332 616.239 44.8512L616.246 45.04C616.241 45.1023 616.212 45.1547 616.162 45.1973C616.126 45.2413 616.112 45.3184 616.118 45.4287C615.86 45.6885 615.637 45.9906 615.45 46.335C615.262 46.6949 615.081 47.0633 614.907 47.4402C614.748 47.8185 614.59 48.1967 614.431 48.5749C614.288 48.9546 614.131 49.3094 613.961 49.6396C614.011 49.7852 614.028 49.9513 614.012 50.1381C613.997 50.3093 613.966 50.4792 613.92 50.6477C613.874 50.8162 613.844 50.9861 613.829 51.1573C613.816 51.2974 613.828 51.4317 613.864 51.5603C613.898 51.7045 613.974 51.8287 614.09 51.933C614.292 51.7781 614.541 51.7136 614.836 51.7395C615.008 51.7545 615.169 51.7921 615.321 51.8525C615.488 51.9141 615.638 51.99 615.771 52.0801C615.823 52.2101 615.844 52.3217 615.836 52.4151C615.826 52.5241 615.787 52.6148 615.718 52.6871C615.663 52.7765 615.593 52.8566 615.509 52.9276C615.438 53.0156 615.361 53.0951 615.276 53.1661C615.207 53.2385 615.16 53.3285 615.135 53.4361C614.774 53.4359 614.411 53.459 614.047 53.5055C613.697 53.5534 613.353 53.6409 613.012 53.7679C612.828 53.7204 612.663 53.6354 612.517 53.5128C612.385 53.4072 612.228 53.3228 612.045 53.2598C611.866 52.9775 611.735 52.6759 611.653 52.3551C611.556 52.0329 611.426 51.7235 611.264 51.427C611.295 51.069 611.373 50.715 611.498 50.3652C611.621 50.0309 611.753 49.6973 611.892 49.3644C612.015 49.0302 612.131 48.6874 612.24 48.3362C612.348 48.0006 612.402 47.6524 612.402 47.2917C612.565 47.2275 612.7 47.1138 612.809 46.9508C612.916 46.8033 613.001 46.6304 613.066 46.4322C613.144 46.2508 613.216 46.061 613.28 45.8628C613.343 45.6801 613.413 45.5136 613.489 45.3634C613.669 45.2694 613.806 45.1402 613.899 44.9758C614.006 44.8283 614.15 44.7076 614.331 44.6136C614.333 44.5825 614.328 44.5507 614.315 44.5182C614.317 44.5026 614.319 44.4793 614.321 44.4481C614.309 44.4156 614.295 44.3909 614.281 44.374C614.265 44.3726 614.259 44.3564 614.262 44.3253C614.264 44.2941 614.259 44.2623 614.246 44.2298C614.248 44.2143 614.258 44.1916 614.276 44.1618L614.536 43.8787C614.778 43.6176 614.964 43.3751 615.094 43.1511C615.224 42.9116 615.373 42.6423 615.541 42.3433C615.691 42.0584 615.873 41.7763 616.085 41.4969C616.298 41.2175 616.503 40.9374 616.7 40.6566C617.169 39.9605 617.621 39.2707 618.057 38.5874C618.511 37.8898 618.986 37.2021 619.485 36.5243C619.369 36.42 619.277 36.3022 619.21 36.1708C619.144 36.0239 619.079 35.877 619.013 35.7301C618.963 35.5846 618.905 35.4462 618.838 35.3148C618.772 35.1679 618.673 35.0416 618.542 34.936C618.29 34.0513 617.989 33.1859 617.639 32.3397C617.307 31.4793 616.981 30.6274 616.663 29.7839C616.549 29.4759 616.442 29.1686 616.344 28.862C616.262 28.5411 616.155 28.2416 616.022 27.9633C615.983 27.8814 615.931 27.8455 615.867 27.8557C615.804 27.8658 615.751 27.8377 615.71 27.7713C615.617 27.4024 615.536 27.0738 615.467 26.7854L615.208 25.7041C615.298 25.3983 615.458 25.1848 615.688 25.0638C615.918 24.9428 616.181 24.8952 616.477 24.9211C616.71 24.9415 616.956 25.0022 617.214 25.1032C617.34 25.2711 617.458 25.4539 617.566 25.6516C617.675 25.8337 617.809 26.01 617.967 26.1807L617.913 26.7877C618.284 27.7456 618.624 28.7007 618.933 29.6531C619.258 30.6069 619.613 31.5634 620 32.5226C620.168 32.5688 620.302 32.6511 620.402 32.7695C620.501 32.888 620.592 33.0136 620.674 33.1463C620.757 33.279 620.84 33.4039 620.924 33.5211C621.023 33.6396 621.166 33.7148 621.351 33.7467C621.416 33.721 621.518 33.628 621.658 33.4676C621.799 33.2918 621.94 33.1081 622.083 32.9166C622.242 32.711 622.377 32.511 622.488 32.3169C622.615 32.124 622.681 31.9887 622.688 31.9109L622.702 31.7474C623.854 30.4209 624.849 28.9944 625.688 27.468C625.851 27.4038 625.984 27.3135 626.089 27.1971C626.194 27.0652 626.292 26.9326 626.382 26.7993C626.489 26.6518 626.595 26.5121 626.701 26.3802C626.807 26.2483 626.934 26.1418 627.082 26.0606C627.188 25.7406 627.339 25.4479 627.535 25.1827C627.731 24.9175 627.934 24.653 628.146 24.3892C628.357 24.1253 628.561 23.8608 628.756 23.5956C628.953 23.3148 629.113 23.0151 629.235 22.6964C629.412 22.6491 629.553 22.5595 629.658 22.4276C629.78 22.297 629.886 22.1573 629.977 22.0085C630.069 21.8597 630.167 21.7193 630.273 21.5874C630.379 21.4554 630.52 21.3658 630.697 21.3186C630.85 20.8144 631.097 20.4125 631.437 20.1129C631.777 19.8133 632.204 19.5996 632.717 19.472L632.833 19.2233C632.892 19.2599 632.998 19.3006 633.151 19.3453C633.306 19.3745 633.451 19.4108 633.589 19.4542C633.743 19.4833 633.873 19.526 633.978 19.5823C634.098 19.6399 634.154 19.7154 634.146 19.8088ZM663.69 35.1687C663.613 36.056 663.475 36.9144 663.277 37.744C663.096 38.5595 662.859 39.3857 662.566 40.2228C662.35 40.3607 662.208 40.5444 662.141 40.7738C662.074 41.0032 661.977 41.2143 661.851 41.4071C661.742 41.5702 661.601 41.7461 661.428 41.9348C661.256 42.108 661.067 42.2953 660.861 42.4969C660.657 42.6829 660.451 42.8767 660.246 43.0783C660.04 43.2799 659.865 43.4842 659.721 43.6912C659.241 43.806 658.877 44.1114 658.63 44.6073C658.372 44.6789 658.106 44.7654 657.831 44.8668C657.556 44.9526 657.353 45.1308 657.219 45.4015C656.617 45.6468 656.043 45.9416 655.495 46.2858C654.964 46.6158 654.391 46.895 653.775 47.1235C653.69 47.1945 653.591 47.2486 653.478 47.2857C653.382 47.3087 653.277 47.3387 653.164 47.3759C653.067 47.4144 652.969 47.4607 652.87 47.5148C652.785 47.5859 652.73 47.6752 652.705 47.7828C652.643 47.7773 652.598 47.7577 652.569 47.7238C652.555 47.7069 652.51 47.6872 652.433 47.6649C652.254 47.7433 652.163 47.8843 652.161 48.088C652.101 48.0515 652.017 48.0284 651.908 48.0189C651.722 48.0025 651.53 48.0407 651.334 48.1333C651.152 48.2428 650.993 48.3544 650.857 48.4681C650.662 48.5451 650.436 48.6194 650.179 48.691C649.937 48.764 649.753 48.9047 649.625 49.1131C649.568 49.0454 649.477 49.0061 649.353 48.9952C649.212 48.9829 649.061 49.0089 648.899 49.0731C648.735 49.1529 648.609 49.2438 648.522 49.346C648.304 49.3269 648.091 49.3397 647.883 49.3842C647.69 49.4457 647.489 49.4987 647.281 49.5433C647.072 49.6034 646.864 49.6557 646.656 49.7003C646.464 49.7462 646.259 49.7597 646.041 49.7406C645.916 49.7297 645.825 49.6904 645.769 49.6227C645.712 49.555 645.639 49.4937 645.549 49.4388C645.466 49.4943 645.32 49.5521 645.111 49.6122C644.917 49.6737 644.774 49.7003 644.68 49.6922C644.509 49.6772 644.34 49.6389 644.173 49.5772C644.021 49.5169 643.862 49.4481 643.697 49.3708L643.221 49.1645C643.069 49.1042 642.901 49.0581 642.715 49.0262C642.586 48.8894 642.426 48.7421 642.236 48.5843C642.06 48.4434 641.877 48.3882 641.686 48.4185C641.629 48.1783 641.53 47.9657 641.389 47.7808C641.248 47.596 641.083 47.4247 640.893 47.2669C640.849 47.2317 640.797 47.1958 640.738 47.1592C640.692 47.1396 640.655 47.1128 640.627 47.0789C640.553 47.0254 640.491 46.9259 640.441 46.7804C640.391 46.6348 640.327 46.5587 640.25 46.5519C640.234 46.5505 640.21 46.5562 640.178 46.5691C640.161 46.5833 640.144 46.5897 640.129 46.5883C640.11 46.4455 640.075 46.3091 640.023 46.1792C639.973 46.0336 639.872 45.9385 639.719 45.8937C639.63 45.4781 639.58 45.0659 639.568 44.6572C639.557 44.2484 639.53 43.8382 639.488 43.4267C639.468 43.2995 639.442 43.1482 639.41 42.9729C639.395 42.7834 639.394 42.6186 639.406 42.4785C639.427 42.245 639.482 41.9675 639.573 41.6461C639.679 41.326 639.767 41.0435 639.835 40.7986C640.101 39.9121 640.426 39.0622 640.811 38.2489C641.198 37.42 641.606 36.601 642.038 35.7918C642.485 34.9839 642.939 34.1845 643.401 33.3936C643.862 32.6027 644.301 31.7941 644.719 30.968C644.781 30.9734 644.821 30.9613 644.839 30.9315L644.92 30.8209C644.955 30.7769 644.982 30.7401 645 30.7103C645.034 30.6819 645.09 30.6711 645.167 30.6779L645.174 30.6078C645.166 30.5131 645.189 30.4366 645.241 30.3784C645.308 30.3216 645.333 30.2218 645.314 30.079C645.588 29.8206 645.825 29.5277 646.026 29.2002C646.229 28.8572 646.43 28.522 646.632 28.1945C646.848 27.8684 647.072 27.5508 647.303 27.2416C647.534 26.9324 647.815 26.6747 648.147 26.4685L648.162 26.305C648.153 26.2258 648.16 26.148 648.182 26.0715C648.221 25.9809 648.281 25.9234 648.362 25.899C648.666 25.6434 648.924 25.3836 649.136 25.1198C649.347 24.8559 649.558 24.5999 649.768 24.3516C649.994 24.0891 650.235 23.8514 650.489 23.6383C650.76 23.4111 651.091 23.2126 651.482 23.0429C651.66 22.9801 651.795 22.8742 651.886 22.7254C651.978 22.5765 652.088 22.4764 652.218 22.4251C652.283 22.3994 652.347 22.3893 652.409 22.3947C652.488 22.386 652.56 22.3687 652.625 22.343C652.897 22.2884 653.17 22.2181 653.444 22.1323C653.719 22.0309 654.005 21.9932 654.301 22.0191C654.674 22.0518 654.945 22.1852 655.113 22.4195C655.297 22.6395 655.431 22.9022 655.514 23.2075C655.613 23.5141 655.687 23.8343 655.736 24.168C655.785 24.5017 655.885 24.7927 656.036 25.0412C656.5 25.1132 656.97 25.2092 657.446 25.3292C657.923 25.4337 658.326 25.6651 658.656 26.0233C658.685 26.0415 658.724 26.0527 658.77 26.0568C658.848 26.0636 658.89 26.0359 658.895 25.9736C658.901 25.9114 658.942 25.8836 659.02 25.8905L659.09 25.8966C659.533 26.2176 659.949 26.5677 660.339 26.947C660.747 27.312 661.145 27.6919 661.534 28.0866C661.606 28.1557 661.678 28.2248 661.751 28.2938C661.84 28.3487 661.913 28.4178 661.968 28.5011C662.038 28.6013 662.098 28.7163 662.15 28.8463C662.216 28.9776 662.277 29.0927 662.331 29.1916C662.991 30.6139 663.385 32.1149 663.513 33.6946C663.53 33.8685 663.539 34.034 663.541 34.191C663.558 34.3494 663.561 34.4986 663.548 34.6387C663.536 34.7788 663.559 34.8749 663.617 34.9271C663.677 34.9636 663.701 35.0442 663.69 35.1687ZM661.788 36.2022C661.843 35.5796 661.817 34.9735 661.712 34.384C661.793 34.3596 661.843 34.317 661.864 34.2561C661.902 34.181 661.925 34.1045 661.932 34.0267L661.942 33.91L661.707 33.3718C661.71 33.1525 661.681 32.9461 661.62 32.7525C661.574 32.5603 661.512 32.3667 661.435 32.1717C661.358 31.9767 661.281 31.7818 661.204 31.5868C661.142 31.3932 661.106 31.1861 661.094 30.9655C660.861 30.7569 660.654 30.527 660.472 30.2758C660.307 30.0104 660.158 29.7386 660.025 29.4604C659.921 29.4042 659.822 29.3642 659.73 29.3405C659.638 29.3167 659.614 29.2284 659.659 29.0754C659.386 28.9731 659.138 28.8417 658.917 28.6812C658.713 28.5064 658.51 28.3162 658.308 28.1103C657.957 28.0012 657.607 27.8764 657.259 27.7362C656.927 27.5817 656.583 27.4888 656.225 27.4575C655.976 27.4357 655.73 27.4613 655.489 27.5342C655.555 27.6656 655.582 27.809 655.568 27.9647C655.556 28.1048 655.56 28.2462 655.578 28.3891C656.066 28.5572 656.343 28.8872 656.409 29.3793C656.327 29.4192 656.252 29.4753 656.183 29.5477C656.115 29.6045 656.047 29.6613 655.98 29.7182C655.929 29.7608 655.863 29.802 655.781 29.8419C655.699 29.8818 655.603 29.897 655.494 29.8874C655.276 29.8684 655.109 29.8145 654.991 29.7258C654.889 29.6384 654.711 29.6072 654.458 29.6321C654.214 29.3754 653.978 29.1117 653.751 28.8409C653.525 28.5545 653.265 28.2965 652.972 28.0669C652.939 27.9071 652.873 27.7602 652.775 27.6262C652.692 27.4935 652.601 27.3679 652.502 27.2494C652.419 27.1167 652.337 26.984 652.254 26.8513C652.189 26.7044 652.164 26.5454 652.179 26.3741C652.188 26.2652 652.203 26.188 652.222 26.1427C652.132 26.1034 652.063 26.0817 652.016 26.0776C651.892 26.0667 651.771 26.1032 651.654 26.1871C651.538 26.2554 651.409 26.2989 651.266 26.3178C651.109 26.6805 650.901 26.9917 650.643 27.2515C650.385 27.5112 650.12 27.7625 649.848 28.0053C649.576 28.2482 649.318 28.5079 649.074 28.7846C648.847 29.0471 648.669 29.3844 648.538 29.7965C647.986 30.3755 647.465 31.0436 646.975 31.8006C646.487 32.5421 646.101 33.2769 645.817 34.005C645.424 34.3784 645.106 34.7819 644.865 35.2156C644.623 35.6493 644.462 36.1372 644.384 36.6793C644.302 36.7192 644.234 36.776 644.18 36.8497L643.906 37.2963C643.868 37.3714 643.808 37.4289 643.726 37.4688L643.716 37.5855C643.705 37.71 643.672 37.8247 643.615 37.9296C643.561 38.0189 643.498 38.1075 643.427 38.1955C643.373 38.2848 643.318 38.3741 643.263 38.4634C643.209 38.5371 643.178 38.6285 643.168 38.7374C643.157 38.862 643.178 38.9892 643.229 39.1192C643.055 39.1353 642.93 39.2185 642.854 39.3687C642.795 39.5047 642.714 39.6231 642.611 39.7239C642.506 40.2166 642.399 40.717 642.292 41.2252C642.185 41.7334 642.109 42.2366 642.066 42.7347C642.015 43.3106 642.027 43.8998 642.099 44.5022C642.227 44.6545 642.338 44.8211 642.432 45.0018C642.526 45.1826 642.621 45.3555 642.716 45.5207C642.827 45.6873 642.947 45.8389 643.076 45.9757C643.207 46.0969 643.387 46.1833 643.618 46.2349C643.609 46.3438 643.625 46.4237 643.668 46.4745C643.71 46.5253 643.744 46.5909 643.768 46.6715C644.086 46.809 644.42 46.9246 644.773 47.0182C645.124 47.1273 645.479 47.1976 645.837 47.2289C646.086 47.2507 646.338 47.2413 646.592 47.2009C646.862 47.1618 647.091 47.0563 647.279 46.8845C648.075 46.9228 648.878 46.8048 649.686 46.5305C650.51 46.2575 651.266 45.9472 651.955 45.5997L652.446 45.6426C652.637 45.4241 652.864 45.2557 653.125 45.1374C653.388 45.0035 653.657 44.8859 653.932 44.7845C653.982 44.7575 654.047 44.7318 654.127 44.7075C654.208 44.6832 654.273 44.6575 654.322 44.6304C654.504 44.5209 654.688 44.3958 654.873 44.2551C655.073 44.1158 655.273 43.9843 655.472 43.8605C655.804 43.6543 656.142 43.4565 656.488 43.2672C656.834 43.0778 657.166 42.8716 657.484 42.6484C657.817 42.4266 658.128 42.1872 658.417 41.9302C658.723 41.6589 658.985 41.3525 659.203 41.0108C659.296 41.019 659.369 41.0018 659.419 40.9591C659.487 40.9023 659.539 40.8442 659.576 40.7846C659.628 40.7264 659.679 40.676 659.73 40.6334C659.797 40.5922 659.884 40.5763 659.993 40.5859C660.005 40.4458 660.039 40.3311 660.094 40.2418C660.166 40.1383 660.236 40.0503 660.305 39.9779C660.391 39.8913 660.469 39.8119 660.538 39.7395C660.622 39.6685 660.701 39.5734 660.774 39.4543L660.832 38.8006C661.116 38.4177 661.333 38.0053 661.481 37.5634C661.645 37.1229 661.747 36.6692 661.788 36.2022ZM693.468 24.9988C693.458 25.1233 693.432 25.2387 693.391 25.3449C693.366 25.4525 693.364 25.57 693.384 25.6972C692.875 25.9507 692.507 26.3106 692.278 26.7768C692.018 26.8795 691.8 27.033 691.626 27.2373C691.452 27.4261 691.285 27.631 691.125 27.8523C690.981 28.0593 690.83 28.2656 690.671 28.4713C690.513 28.6614 690.311 28.8163 690.065 28.9359L690.02 29.4496C689.899 29.4076 689.812 29.4157 689.76 29.4738C689.724 29.5178 689.666 29.552 689.586 29.5763C689.223 30.1405 688.852 30.7041 688.473 31.267C688.096 31.8143 687.646 32.3004 687.122 32.7251C686.969 33.0411 686.801 33.3479 686.618 33.6456C686.436 33.9433 686.245 34.2403 686.046 34.5367C685.848 34.833 685.657 35.13 685.474 35.4277C685.291 35.7254 685.139 36.0336 685.017 36.3523C684.677 36.6519 684.381 36.9946 684.127 37.3802C683.875 37.7503 683.63 38.1288 683.393 38.5158C683.172 38.8886 682.928 39.2594 682.66 39.6281C682.408 39.9982 682.112 40.333 681.772 40.6327C681.776 40.7741 681.742 40.8888 681.672 40.9767C681.601 41.0647 681.561 41.1631 681.552 41.2721C681.52 41.6301 681.656 42.0498 681.959 42.5312C682.279 42.9983 682.66 43.4787 683.103 43.9723C683.548 44.4504 683.995 44.8973 684.445 45.3131C684.895 45.7289 685.243 46.0495 685.49 46.275C685.91 46.1392 686.283 45.9993 686.609 45.8553C686.937 45.6958 687.32 45.6195 687.758 45.6265C687.967 45.7545 688.125 45.9174 688.233 46.115C688.358 46.2985 688.411 46.507 688.39 46.7405C688.359 47.0985 688.22 47.4314 687.973 47.7392C687.728 48.0315 687.464 48.2672 687.182 48.4464C686.929 48.4713 686.677 48.4884 686.425 48.4978C686.173 48.5071 685.923 48.5009 685.674 48.4791C685.175 48.4355 684.681 48.3452 684.192 48.2083C683.719 48.0571 683.246 47.8981 682.775 47.7314C682.54 47.3658 682.27 47.0442 681.965 46.7665C681.677 46.4747 681.345 46.2339 680.969 46.0442C680.97 45.8561 680.937 45.6963 680.87 45.565C680.803 45.4337 680.719 45.3165 680.619 45.2136C680.519 45.0951 680.403 44.9908 680.27 44.9007C680.152 44.812 680.035 44.7155 679.918 44.6112C679.759 44.6443 679.612 44.7021 679.48 44.7846C679.348 44.8515 679.203 44.9015 679.043 44.9346C678.685 45.6247 678.229 46.2593 677.677 46.8384C677.683 47.1213 677.61 47.3344 677.456 47.4778C677.319 47.607 677.143 47.7406 676.927 47.8786C676.81 48.3231 676.626 48.7149 676.377 49.0539C676.143 49.3942 675.872 49.7233 675.561 50.0412L675.568 50.23C675.563 50.2923 675.535 50.3447 675.484 50.3873C675.449 50.4313 675.434 50.5085 675.44 50.6188C675.182 50.8785 674.96 51.1806 674.773 51.525C674.585 51.885 674.403 52.2534 674.229 52.6303C674.071 53.0085 673.912 53.3867 673.753 53.765C673.61 54.1446 673.454 54.4995 673.284 54.8297C673.334 54.9752 673.351 55.1414 673.334 55.3282C673.319 55.4994 673.289 55.6692 673.243 55.8377C673.197 56.0062 673.166 56.1761 673.151 56.3473C673.139 56.4874 673.151 56.6218 673.186 56.7504C673.221 56.8945 673.296 57.0188 673.413 57.1231C673.614 56.9682 673.863 56.9037 674.159 56.9296C674.33 56.9445 674.491 56.9822 674.643 57.0425C674.81 57.1042 674.96 57.1801 675.094 57.2701C675.145 57.4001 675.167 57.5118 675.158 57.6052C675.149 57.7141 675.11 57.8048 675.041 57.8772C674.986 57.9665 674.916 58.0467 674.831 58.1177C674.761 58.2056 674.683 58.2851 674.599 58.3561C674.53 58.4285 674.483 58.5185 674.457 58.6261C674.097 58.6259 673.734 58.6491 673.369 58.6956C673.02 58.7434 672.675 58.8309 672.334 58.958C672.15 58.9105 671.985 58.8255 671.839 58.7029C671.707 58.5972 671.55 58.5129 671.367 58.4498C671.188 58.1675 671.058 57.866 670.976 57.5451C670.879 57.2229 670.749 56.9135 670.587 56.617C670.618 56.259 670.696 55.9051 670.821 55.5553C670.944 55.221 671.075 54.8874 671.214 54.5545C671.337 54.2202 671.454 53.8775 671.563 53.5263C671.671 53.1906 671.725 52.8425 671.725 52.4817C671.887 52.4175 672.023 52.3039 672.131 52.1408C672.238 51.9934 672.324 51.8205 672.388 51.6222C672.467 51.4409 672.538 51.2511 672.603 51.0528C672.666 50.8701 672.735 50.7036 672.811 50.5534C672.992 50.4595 673.129 50.3303 673.221 50.1659C673.328 50.0184 673.472 49.8976 673.653 49.8037C673.656 49.7725 673.651 49.7407 673.638 49.7082C673.639 49.6927 673.641 49.6693 673.644 49.6382C673.631 49.6057 673.618 49.581 673.603 49.564C673.588 49.5627 673.581 49.5464 673.584 49.5153C673.587 49.4842 673.582 49.4524 673.569 49.4199C673.57 49.4043 673.58 49.3816 673.598 49.3519L673.858 49.0688C674.101 48.8077 674.287 48.5651 674.416 48.3412C674.547 48.1017 674.696 47.8324 674.863 47.5333C675.014 47.2485 675.195 46.9663 675.408 46.6869C675.621 46.4075 675.825 46.1274 676.022 45.8467C676.491 45.1505 676.944 44.4608 677.38 43.7774C677.833 43.0799 678.309 42.3922 678.807 41.7143C678.691 41.61 678.599 41.4922 678.532 41.3609C678.467 41.214 678.401 41.0671 678.336 40.9202C678.286 40.7746 678.227 40.6362 678.16 40.5049C678.095 40.358 677.996 40.2317 677.864 40.126C677.612 39.2413 677.311 38.3759 676.962 37.5297C676.629 36.6693 676.304 35.8174 675.986 34.974C675.871 34.666 675.765 34.3586 675.666 34.052C675.585 33.7312 675.477 33.4316 675.345 33.1534C675.305 33.0715 675.253 33.0356 675.19 33.0457C675.126 33.0558 675.074 33.0277 675.032 32.9614C674.939 32.5925 674.858 32.2638 674.789 31.9755L674.531 30.8942C674.62 30.5883 674.78 30.3749 675.01 30.2538C675.241 30.1328 675.504 30.0852 675.799 30.1111C676.033 30.1315 676.278 30.1922 676.536 30.2932C676.663 30.4611 676.78 30.6439 676.888 30.8416C676.998 31.0237 677.131 31.2001 677.289 31.3707L677.236 31.9778C677.607 32.9356 677.947 33.8908 678.256 34.8432C678.58 35.797 678.935 36.7535 679.322 37.7127C679.491 37.7588 679.625 37.8411 679.724 37.9596C679.823 38.0781 679.914 38.2037 679.997 38.3364C680.079 38.4691 680.163 38.594 680.246 38.7111C680.346 38.8296 680.488 38.9048 680.674 38.9367C680.739 38.911 680.841 38.818 680.98 38.6577C681.121 38.4818 681.263 38.2981 681.405 38.1067C681.564 37.901 681.699 37.7011 681.81 37.5069C681.937 37.3141 682.004 37.1788 682.011 37.1009L682.025 36.9375C683.176 35.6109 684.172 34.1844 685.011 32.658C685.173 32.5938 685.307 32.5035 685.411 32.3872C685.517 32.2552 685.615 32.1226 685.705 31.9894C685.812 31.8419 685.918 31.7022 686.024 31.5703C686.129 31.4383 686.256 31.3318 686.404 31.2507C686.511 30.9306 686.662 30.638 686.858 30.3728C687.053 30.1076 687.257 29.8431 687.468 29.5792C687.68 29.3154 687.883 29.0509 688.079 28.7857C688.276 28.5049 688.435 28.2052 688.557 27.8865C688.734 27.8392 688.875 27.7496 688.981 27.6176C689.102 27.4871 689.208 27.3474 689.3 27.1985C689.391 27.0497 689.49 26.9093 689.596 26.7774C689.701 26.6455 689.842 26.5559 690.019 26.5086C690.173 26.0045 690.42 25.6026 690.76 25.3029C691.1 25.0033 691.526 24.7897 692.039 24.662L692.155 24.4134C692.215 24.4499 692.321 24.4906 692.474 24.5353C692.628 24.5645 692.774 24.6008 692.911 24.6442C693.066 24.6734 693.195 24.7161 693.3 24.7723C693.42 24.8299 693.477 24.9054 693.468 24.9988ZM723.013 40.3588C722.935 41.246 722.797 42.1044 722.599 42.9341C722.418 43.7495 722.181 44.5758 721.888 45.4128C721.672 45.5508 721.531 45.7344 721.464 45.9638C721.397 46.1932 721.3 46.4043 721.173 46.5972C721.065 46.7602 720.924 46.9361 720.75 47.1248C720.578 47.298 720.389 47.4854 720.184 47.687C719.979 47.873 719.774 48.0668 719.568 48.2683C719.362 48.4699 719.188 48.6742 719.044 48.8812C718.563 48.996 718.199 49.3014 717.952 49.7974C717.695 49.869 717.429 49.9555 717.153 50.0568C716.879 50.1426 716.675 50.3209 716.542 50.5915C715.94 50.8369 715.365 51.1317 714.817 51.4759C714.287 51.8059 713.713 52.0851 713.097 52.3135C713.013 52.3845 712.914 52.4386 712.801 52.4758C712.705 52.4987 712.6 52.5288 712.487 52.566C712.389 52.6045 712.291 52.6508 712.192 52.7049C712.108 52.7759 712.053 52.8652 712.028 52.9728C711.966 52.9674 711.92 52.9477 711.892 52.9139C711.878 52.8969 711.832 52.8773 711.756 52.8549C711.576 52.9333 711.486 53.0744 711.483 53.2781C711.424 53.2415 711.34 53.2185 711.231 53.2089C711.044 53.1926 710.852 53.2307 710.656 53.3233C710.474 53.4329 710.315 53.5445 710.18 53.6581C709.985 53.7351 709.759 53.8095 709.502 53.8811C709.26 53.954 709.075 54.0947 708.947 54.3031C708.89 54.2354 708.8 54.1961 708.675 54.1852C708.535 54.1729 708.384 54.1989 708.221 54.2631C708.057 54.3429 707.932 54.4339 707.844 54.536C707.626 54.517 707.414 54.5297 707.206 54.5743C707.012 54.6357 706.812 54.6888 706.604 54.7333C706.395 54.7935 706.186 54.8458 705.978 54.8904C705.786 54.9363 705.581 54.9497 705.363 54.9306C705.239 54.9197 705.148 54.8804 705.091 54.8127C705.034 54.745 704.961 54.6837 704.872 54.6289C704.789 54.6843 704.642 54.7421 704.433 54.8022C704.24 54.8637 704.096 54.8904 704.003 54.8822C703.832 54.8672 703.662 54.8289 703.495 54.7672C703.344 54.7069 703.185 54.6381 703.019 54.5609L702.543 54.3545C702.392 54.2942 702.223 54.2481 702.038 54.2162C701.908 54.0794 701.749 53.9321 701.559 53.7744C701.383 53.6335 701.199 53.5782 701.009 53.6086C700.951 53.3683 700.852 53.1557 700.711 52.9709C700.571 52.786 700.405 52.6147 700.215 52.4569C700.171 52.4217 700.12 52.3858 700.06 52.3492C700.015 52.3296 699.978 52.3028 699.949 52.269C699.876 52.2155 699.814 52.116 699.764 51.9704C699.714 51.8249 699.65 51.7487 699.572 51.7419C699.556 51.7405 699.532 51.7463 699.5 51.7591C699.483 51.7733 699.467 51.7798 699.451 51.7784C699.432 51.6356 699.397 51.4992 699.346 51.3692C699.296 51.2237 699.194 51.1285 699.041 51.0838C698.952 50.6682 698.902 50.256 698.891 49.8472C698.88 49.4384 698.853 49.0283 698.81 48.6167C698.79 48.4895 698.764 48.3382 698.732 48.1629C698.718 47.9734 698.716 47.8086 698.729 47.6685C698.749 47.435 698.805 47.1576 698.895 46.8361C699.002 46.5161 699.089 46.2336 699.158 45.9886C699.424 45.1021 699.749 44.2523 700.134 43.439C700.52 42.6101 700.929 41.791 701.36 40.9818C701.808 40.174 702.262 39.3746 702.723 38.5836C703.184 37.7927 703.624 36.9842 704.041 36.158C704.103 36.1635 704.144 36.1513 704.162 36.1216L704.242 36.0109C704.277 35.967 704.304 35.9301 704.322 35.9003C704.356 35.8719 704.412 35.8611 704.49 35.8679L704.496 35.7979C704.489 35.7031 704.511 35.6267 704.563 35.5685C704.631 35.5117 704.655 35.4119 704.636 35.269C704.91 35.0107 705.147 34.7177 705.349 34.3903C705.551 34.0472 705.753 33.712 705.954 33.3845C706.171 33.0584 706.395 32.7408 706.626 32.4316C706.857 32.1224 707.138 31.8647 707.47 31.6585L707.484 31.4951C707.475 31.4159 707.482 31.338 707.504 31.2616C707.544 31.1709 707.604 31.1134 707.684 31.0891C707.989 30.8334 708.247 30.5737 708.458 30.3098C708.669 30.046 708.88 29.7899 709.09 29.5417C709.317 29.2792 709.557 29.0414 709.811 28.8284C710.082 28.6011 710.413 28.4026 710.804 28.233C710.982 28.1701 711.117 28.0643 711.209 27.9154C711.3 27.7666 711.411 27.6665 711.541 27.6151C711.606 27.5894 711.669 27.5793 711.732 27.5848C711.811 27.576 711.883 27.5588 711.948 27.5331C712.219 27.4784 712.492 27.4082 712.766 27.3224C713.042 27.221 713.327 27.1832 713.623 27.2091C713.997 27.2418 714.267 27.3753 714.435 27.6095C714.62 27.8296 714.754 28.0923 714.837 28.3975C714.935 28.7042 715.009 29.0243 715.058 29.358C715.108 29.6917 715.208 29.9828 715.358 30.2312C715.823 30.3032 716.293 30.3992 716.768 30.5193C717.246 30.6238 717.649 30.8551 717.978 31.2133C718.008 31.2316 718.046 31.2428 718.093 31.2469C718.171 31.2537 718.212 31.2259 718.218 31.1637C718.223 31.1014 718.265 31.0737 718.343 31.0805L718.413 31.0866C718.855 31.4077 719.272 31.7578 719.662 32.137C720.069 32.502 720.467 32.8819 720.856 33.2767C720.929 33.3457 721.001 33.4148 721.073 33.4839C721.163 33.5388 721.235 33.6078 721.29 33.6911C721.36 33.7913 721.421 33.9064 721.472 34.0364C721.539 34.1677 721.599 34.2828 721.654 34.3816C722.313 35.8039 722.707 37.3049 722.836 38.8846C722.852 39.0586 722.861 39.224 722.863 39.3811C722.881 39.5394 722.883 39.6887 722.871 39.8288C722.859 39.9689 722.882 40.065 722.94 40.1171C722.999 40.1537 723.024 40.2342 723.013 40.3588ZM721.111 41.3922C721.165 40.7696 721.14 40.1635 721.035 39.574C721.115 39.5497 721.166 39.5071 721.187 39.4462C721.225 39.3711 721.247 39.2946 721.254 39.2168L721.264 39.1L721.029 38.5618C721.032 38.3426 721.003 38.1361 720.942 37.9425C720.896 37.7503 720.835 37.5567 720.758 37.3617C720.68 37.1668 720.603 36.9718 720.526 36.7769C720.465 36.5833 720.428 36.3762 720.416 36.1555C720.183 35.9469 719.976 35.7171 719.794 35.4659C719.629 35.2005 719.48 34.9287 719.348 34.6504C719.243 34.5942 719.145 34.5542 719.053 34.5305C718.96 34.5068 718.937 34.4184 718.982 34.2655C718.708 34.1632 718.461 34.0317 718.24 33.8712C718.035 33.6965 717.832 33.5062 717.631 33.3003C717.28 33.1912 716.93 33.0665 716.581 32.9262C716.25 32.7717 715.905 32.6788 715.547 32.6475C715.298 32.6257 715.053 32.6513 714.811 32.7243C714.878 32.8556 714.905 32.9991 714.891 33.1547C714.879 33.2948 714.882 33.4363 714.901 33.5791C715.388 33.7472 715.665 34.0773 715.732 34.5693C715.65 34.6092 715.574 34.6654 715.505 34.7378C715.438 34.7946 715.37 34.8514 715.302 34.9082C715.251 34.9508 715.185 34.9921 715.103 35.0319C715.021 35.0718 714.926 35.087 714.817 35.0775C714.599 35.0584 714.431 35.0045 714.313 34.9158C714.211 34.8284 714.034 34.7972 713.78 34.8221C713.536 34.5655 713.301 34.3017 713.073 34.0309C712.847 33.7445 712.588 33.4865 712.294 33.2569C712.261 33.0972 712.195 32.9503 712.097 32.8162C712.015 32.6835 711.924 32.5579 711.824 32.4394C711.742 32.3067 711.659 32.1741 711.577 32.0414C711.511 31.8945 711.486 31.7354 711.501 31.5642C711.511 31.4552 711.525 31.3781 711.545 31.3327C711.454 31.2934 711.385 31.2717 711.339 31.2677C711.214 31.2568 711.093 31.2932 710.976 31.3771C710.861 31.4454 710.731 31.489 710.588 31.5079C710.431 31.8705 710.224 32.1818 709.966 32.4415C709.708 32.7013 709.443 32.9525 709.17 33.1954C708.898 33.4382 708.64 33.698 708.396 33.9746C708.169 34.2371 707.991 34.5744 707.861 34.9865C707.308 35.5655 706.787 36.2336 706.297 36.9907C705.809 37.7322 705.423 38.467 705.14 39.1951C704.746 39.5684 704.429 39.972 704.187 40.4057C703.945 40.8394 703.785 41.3273 703.706 41.8693C703.624 41.9092 703.556 41.966 703.503 42.0398L703.229 42.4863C703.191 42.5614 703.131 42.6189 703.049 42.6588L703.039 42.7755C703.028 42.9001 702.994 43.0148 702.938 43.1196C702.883 43.2089 702.82 43.2976 702.75 43.3855C702.695 43.4748 702.64 43.5641 702.585 43.6534C702.532 43.7272 702.5 43.8185 702.491 43.9275C702.48 44.052 702.5 44.1793 702.552 44.3092C702.378 44.3254 702.253 44.4086 702.177 44.5588C702.118 44.6948 702.037 44.8132 701.934 44.914C701.828 45.4066 701.722 45.907 701.614 46.4153C701.507 46.9235 701.432 47.4266 701.388 47.9247C701.338 48.5007 701.349 49.0898 701.422 49.6922C701.55 49.8445 701.661 50.0111 701.755 50.1918C701.848 50.3726 701.943 50.5456 702.039 50.7108C702.149 50.8773 702.269 51.029 702.399 51.1658C702.529 51.287 702.71 51.3734 702.941 51.4249C702.931 51.5339 702.948 51.6137 702.99 51.6645C703.033 51.7153 703.066 51.781 703.091 51.8615C703.408 51.9991 703.743 52.1147 704.096 52.2082C704.447 52.3174 704.801 52.3876 705.159 52.4189C705.408 52.4407 705.66 52.4314 705.915 52.3909C706.185 52.3518 706.414 52.2463 706.601 52.0745C707.398 52.1129 708.2 51.9948 709.008 51.7205C709.832 51.4475 710.589 51.1373 711.278 50.7897L711.768 50.8326C711.96 50.6141 712.186 50.4457 712.447 50.3274C712.71 50.1936 712.979 50.076 713.255 49.9746C713.304 49.9475 713.369 49.9218 713.45 49.8975C713.53 49.8732 713.595 49.8475 713.645 49.8205C713.827 49.7109 714.01 49.5858 714.195 49.4451C714.395 49.3058 714.595 49.1743 714.794 49.0506C715.126 48.8443 715.465 48.6465 715.811 48.4572C716.157 48.2679 716.488 48.0616 716.806 47.8385C717.139 47.6166 717.45 47.3772 717.739 47.1202C718.045 46.849 718.307 46.5425 718.526 46.2009C718.619 46.209 718.691 46.1918 718.742 46.1492C718.81 46.0924 718.862 46.0342 718.898 45.9747C718.95 45.9165 719.002 45.8661 719.053 45.8235C719.119 45.7822 719.207 45.7664 719.316 45.7759C719.328 45.6358 719.361 45.5211 719.416 45.4318C719.488 45.3283 719.559 45.2403 719.628 45.168C719.714 45.0814 719.791 45.0019 719.86 44.9295C719.945 44.8585 720.024 44.7635 720.097 44.6444L720.154 43.9906C720.439 43.6077 720.655 43.1953 720.803 42.7535C720.967 42.3129 721.07 41.8592 721.111 41.3922Z" fill="#303030"/>
</svg>
